<svg id="Logos" xmlns="http://www.w3.org/2000/svg" viewBox="0 0 504 144"><defs><style>.cls-1{fill:#ce4d42;}.cls-1,.cls-2{stroke:#fff;stroke-miterlimit:10;stroke-width:5.54px;}.cls-2{fill:#5b7ebd;}.cls-3{fill:#fff;}</style></defs><rect class="cls-1" x="36.62" y="31.95" width="74.8" height="28.25" transform="translate(-12.3 58.36) rotate(-40)"/><rect class="cls-2" x="21.33" y="85.09" width="74.8" height="28.25" transform="translate(-50.03 60.96) rotate(-40)"/><path class="cls-3" d="M168.67,115q-14.47,0-23.43-4.35a2.25,2.25,0,0,1-1.15-2.3V90c0-.94.43-1.19,1.28-.77a46.13,46.13,0,0,0,12.48,5.25A51.51,51.51,0,0,0,170.33,96c4.1,0,6.93-.49,8.51-1.47a4.35,4.35,0,0,0,2.37-3.78,4.9,4.9,0,0,0-.45-2.11,5,5,0,0,0-1.66-1.86,22.87,22.87,0,0,0-3.33-1.92q-2.11-1-5.31-2.3l-5.76-2.31q-11-4.33-15.87-10.3A22.36,22.36,0,0,1,144,55.31a25.52,25.52,0,0,1,1.85-9.53,22.26,22.26,0,0,1,5.89-8.32A30.38,30.38,0,0,1,162,31.57a45.19,45.19,0,0,1,15.11-2.24,75.14,75.14,0,0,1,11.39.83,40.61,40.61,0,0,1,9.09,2.37c.68.09,1,.64,1,1.67V51.86a.88.88,0,0,1-.32.57c-.21.22-.58.24-1.09.07a32.59,32.59,0,0,0-9.79-3.58,55.63,55.63,0,0,0-11.33-1.16q-5.88,0-8.12,1.73a4.92,4.92,0,0,0-2.25,3.9,5.2,5.2,0,0,0,.33,1.8A4.51,4.51,0,0,0,167.52,57a17.58,17.58,0,0,0,3.26,2.05,47.27,47.27,0,0,0,5.7,2.37l5.12,1.92a62.59,62.59,0,0,1,11.13,5.31,25.85,25.85,0,0,1,6.79,6,18.58,18.58,0,0,1,3.32,6.79,30.92,30.92,0,0,1,.9,7.55,22.59,22.59,0,0,1-9.92,19.39,34.1,34.1,0,0,1-11.14,4.93A56,56,0,0,1,168.67,115Z"/><path class="cls-3" d="M248.71,29.33a41.78,41.78,0,0,1,17.47,3.46A37.29,37.29,0,0,1,279,42.13a39.86,39.86,0,0,1,7.81,13.51,48.52,48.52,0,0,1,2.62,15.93,51.61,51.61,0,0,1-2.88,17.6,40,40,0,0,1-8.19,13.76,36.08,36.08,0,0,1-12.86,8.9,48.22,48.22,0,0,1-34.18,0A36,36,0,0,1,218.5,103a38.57,38.57,0,0,1-8-13.57A52.78,52.78,0,0,1,207.75,72a48.31,48.31,0,0,1,2.81-16.58,40.55,40.55,0,0,1,8.13-13.57,37.82,37.82,0,0,1,12.87-9.15A42.08,42.08,0,0,1,248.71,29.33ZM230.79,72.08A36,36,0,0,0,232,81.75a22.62,22.62,0,0,0,3.52,7.55A16.07,16.07,0,0,0,249.09,96q8.19,0,12.74-6.14t4.54-17.8q0-10.87-4.54-17.34t-13.5-6.46q-8.58,0-13.06,6.52T230.79,72.08Z"/><path class="cls-3" d="M317.21,80.15a19.41,19.41,0,0,0,3.14,11.39Q323.49,96,331,96a12.61,12.61,0,0,0,9.28-3.78q3.76-3.76,3.77-12.09V32a1.25,1.25,0,0,1,1.41-1.41h19.59a1.24,1.24,0,0,1,1.4,1.41V81.43a37.27,37.27,0,0,1-2.81,15.16A28.57,28.57,0,0,1,356,107a31.11,31.11,0,0,1-11.39,6,49.32,49.32,0,0,1-14,1.92q-16.77,0-26.24-8.06t-9.47-24.58V32c0-.94.43-1.41,1.28-1.41h19.84a1,1,0,0,1,1.15,1.15Z"/><path class="cls-3" d="M375.31,113.68c-.68,0-1.09-.12-1.22-.38a3.23,3.23,0,0,1-.19-1.28V31.89c0-.85.39-1.28,1.15-1.28h20.1c.68,0,1,.39,1,1.15v63h34.69c.77,0,1.11.43,1,1.28L429.2,112.4a1.72,1.72,0,0,1-.64,1.09,2.31,2.31,0,0,1-1,.19Z"/><path class="cls-3" d="M477.88,68.76a28.75,28.75,0,0,0-8-2.88,41,41,0,0,0-8.13-.84,11,11,0,0,0-4.54.71c-1,.47-1.48,1-1.48,1.72a3,3,0,0,0,.13.9,2.5,2.5,0,0,0,.9,1,12.12,12.12,0,0,0,2.37,1.28c1.06.47,2.58,1,4.54,1.73a67.9,67.9,0,0,1,9.22,4.35,24.91,24.91,0,0,1,6,4.74A15.9,15.9,0,0,1,482.23,87a20.37,20.37,0,0,1,1,6.59,20.82,20.82,0,0,1-1.73,8.51,18.21,18.21,0,0,1-5.25,6.78,25.26,25.26,0,0,1-8.77,4.48,41.67,41.67,0,0,1-12.16,1.6,56.22,56.22,0,0,1-10.43-.83,40.73,40.73,0,0,1-8-2.37,1.68,1.68,0,0,1-1-1.79V93.59c0-.43.13-.71.39-.83a.72.72,0,0,1,.77.06,31.81,31.81,0,0,0,9.53,4.29,34.07,34.07,0,0,0,8.13,1.21,14.9,14.9,0,0,0,5.38-.7c1.11-.47,1.66-1.13,1.66-2a2.85,2.85,0,0,0-1.47-2.31,44.37,44.37,0,0,0-6.72-3.2,50.18,50.18,0,0,1-8.77-4.29,23.54,23.54,0,0,1-5.63-4.8,15.84,15.84,0,0,1-3-5.5,21.81,21.81,0,0,1-.89-6.4,19.92,19.92,0,0,1,1.6-7.87,18,18,0,0,1,4.92-6.66A25.13,25.13,0,0,1,450.23,50a38.21,38.21,0,0,1,12.16-1.73,67.85,67.85,0,0,1,8.83.58,29.2,29.2,0,0,1,7.17,1.73c.6.17.9.85.9,2.05v15a1.56,1.56,0,0,1-.39,1.16C478.65,69,478.3,69,477.88,68.76Z"/></svg>